<?xml version="1.0" encoding="UTF-8" standalone="no"?>
<svg
   width="256px"
   height="271px"
   viewBox="0 0 256 271"
   version="1.1"
   preserveAspectRatio="xMidYMid"
   id="svg3"
   sodipodi:docname="logo.svg"
   inkscape:version="1.4.2 (ebf0e940, 2025-05-08)"
   xmlns:inkscape="http://www.inkscape.org/namespaces/inkscape"
   xmlns:sodipodi="http://sodipodi.sourceforge.net/DTD/sodipodi-0.dtd"
   xmlns="http://www.w3.org/2000/svg"
   xmlns:svg="http://www.w3.org/2000/svg">
  <sodipodi:namedview
     id="namedview3"
     pagecolor="#ffffff"
     bordercolor="#000000"
     borderopacity="0.25"
     inkscape:showpageshadow="2"
     inkscape:pageopacity="0.0"
     inkscape:pagecheckerboard="0"
     inkscape:deskcolor="#d1d1d1"
     inkscape:zoom="1.7944429"
     inkscape:cx="142.66266"
     inkscape:cy="139.59764"
     inkscape:window-width="1512"
     inkscape:window-height="916"
     inkscape:window-x="0"
     inkscape:window-y="38"
     inkscape:window-maximized="1"
     inkscape:current-layer="g3" />
  <defs
     id="defs2">
    <linearGradient
       x1="21.8628652%"
       y1="12.0575311%"
       x2="68.3669921%"
       y2="68.2103006%"
       id="linearGradient-2">
      <stop
         stop-color="#FF31D9"
         offset="0%"
         id="stop1" />
      <stop
         stop-color="#FF5BE1"
         stop-opacity="0"
         offset="100%"
         id="stop2" />
    </linearGradient>
  </defs>
  <g
     id="g3">
    <path
       d="M 256,45.178708 246.75607,190.33686 158.37332,0 Z M 194.78303,232.87577 128.00058,270.98118 61.216965,232.87577 74.799858,199.95774 194.57477,233.3943 Z M 128.00058,72.248815 162.99471,157.32547 74.615182,199.67845 Z M 9.1494031,190.33686 0,45.178708 97.626679,0 Z"
       fill="#ffffff"
       id="path2"
       sodipodi:nodetypes="cccccccccccccccccc" />
    <path
       d="M 256,45.178708 246.75607,190.33686 158.37332,0 Z M 194.78303,232.87577 128.00058,270.98118 61.216965,232.87577 74.799858,199.95774 194.57477,232.83703 Z M 128.00058,72.248815 162.99471,157.32547 75.172458,199.67845 Z M 9.1494031,190.33686 0,45.178708 97.626679,0 Z"
       fill="url(#linearGradient-2)"
       id="path3"
       sodipodi:nodetypes="cccccccccccccccccc" />
  </g>
</svg>
