<svg width="100%"
     height="100%"
     viewBox="0 0 256 271"
     xmlns="http://www.w3.org/2000/svg"
     preserveAspectRatio="xMidYMid">
  <defs
    id="defs2">
    <linearGradient
      x1="21.8628652%"
      y1="12.0575311%"
      x2="68.3669921%"
      y2="68.2103006%"
      id="linearGradient-2">
      <stop
        stop-color="#d92662"
        offset="0%"
        id="stop1"/>
      <stop
        stop-color="#FF5BE1"
        stop-opacity="0"
        offset="100%"
        id="stop2"/>
    </linearGradient>
  </defs>
  <g
    id="g3">
    <path
      d="M 256,45.178708 246.75607,190.33686 158.37332,0 Z M 194.78303,232.87577 128.00058,270.98118 61.216965,232.87577 74.799858,199.95774 194.57477,233.3943 Z M 128.00058,72.248815 162.99471,157.32547 74.615182,199.67845 Z M 9.1494031,190.33686 0,45.178708 97.626679,0 Z"
      fill="#ffffff"
    />
    <path
      d="M 256,45.178708 246.75607,190.33686 158.37332,0 Z M 194.78303,232.87577 128.00058,270.98118 61.216965,232.87577 74.799858,199.95774 194.57477,232.83703 Z M 128.00058,72.248815 162.99471,157.32547 75.172458,199.67845 Z M 9.1494031,190.33686 0,45.178708 97.626679,0 Z"
      fill="url(#linearGradient-2)"/>
  </g>
</svg>
