<svg xmlns="http://www.w3.org/2000/svg" viewBox="0 0 259.21484375 480.47265625" width="518.4296875"
     height="960.9453125">
  <g stroke-linecap="round" transform="translate(10 10) rotate(0 119.607421875 230.236328125)">
    <path
      d="M0 0 C84.58 0, 169.16 0, 239.21 0 M0 0 C85.93 0, 171.87 0, 239.21 0 M239.21 0 C239.21 142.24, 239.21 284.48, 239.21 460.47 M239.21 0 C239.21 98.52, 239.21 197.03, 239.21 460.47 M239.21 460.47 C158.07 460.47, 76.93 460.47, 0 460.47 M239.21 460.47 C173.13 460.47, 107.05 460.47, 0 460.47 M0 460.47 C0 353.87, 0 247.27, 0 0 M0 460.47 C0 281.8, 0 103.13, 0 0"
      stroke="#1e1e1e" stroke-width="1" fill="none"></path>
  </g>
</svg>
